<svg width="101" height="32" viewBox="0 0 101 32" fill="none" xmlns="http://www.w3.org/2000/svg">
<path d="M14.6667 12.2133V2.66666C8 3.33333 2.66666 9.05333 2.66666 16C2.66666 22.9467 8 28.6667 14.6667 29.3333V19.7867C13.3333 19.24 12 17.76 12 16C12 14.24 13.3333 12.76 14.6667 12.2133ZM19.8133 14.6667H29.3333C28.6933 8.33333 24 3.29333 17.3333 2.66666V12.2133C18.6667 12.6133 19.36 13.52 19.8133 14.6667ZM17.3333 19.7867V29.3333C24 28.7067 28.6933 23.6667 29.3333 17.3333H19.8133C19.36 18.48 18.6667 19.3867 17.3333 19.7867Z" fill="white"/>
<path d="M41.3203 21.5V10.125H45.0391C46.2734 10.125 47.2005 10.3802 47.8203 10.8906C48.4453 11.401 48.7578 12.1562 48.7578 13.1562C48.7578 13.6875 48.6068 14.1589 48.3047 14.5703C48.0026 14.9766 47.5911 15.2917 47.0703 15.5156C47.6849 15.6875 48.1693 16.0156 48.5234 16.5C48.8828 16.9792 49.0625 17.5521 49.0625 18.2188C49.0625 19.2396 48.7318 20.0417 48.0703 20.625C47.4089 21.2083 46.474 21.5 45.2656 21.5H41.3203ZM42.8203 16.1797V20.2734H45.2969C45.9948 20.2734 46.5443 20.0938 46.9453 19.7344C47.3516 19.3698 47.5547 18.8698 47.5547 18.2344C47.5547 16.8646 46.8099 16.1797 45.3203 16.1797H42.8203ZM42.8203 14.9766H45.0859C45.7422 14.9766 46.2656 14.8125 46.6562 14.4844C47.0521 14.1562 47.25 13.7109 47.25 13.1484C47.25 12.5234 47.0677 12.0703 46.7031 11.7891C46.3385 11.5026 45.7839 11.3594 45.0391 11.3594H42.8203V14.9766ZM50.6797 17.1953C50.6797 16.3672 50.8411 15.6224 51.1641 14.9609C51.4922 14.2995 51.9453 13.7891 52.5234 13.4297C53.1068 13.0703 53.7708 12.8906 54.5156 12.8906C55.6667 12.8906 56.5964 13.2891 57.3047 14.0859C58.0182 14.8828 58.375 15.9427 58.375 17.2656V17.3672C58.375 18.1901 58.2161 18.9297 57.8984 19.5859C57.5859 20.237 57.1354 20.7448 56.5469 21.1094C55.9635 21.474 55.2917 21.6562 54.5312 21.6562C53.3854 21.6562 52.4557 21.2578 51.7422 20.4609C51.0339 19.6641 50.6797 18.6094 50.6797 17.2969V17.1953ZM52.1328 17.3672C52.1328 18.3047 52.349 19.0573 52.7812 19.625C53.2188 20.1927 53.8021 20.4766 54.5312 20.4766C55.2656 20.4766 55.849 20.1901 56.2812 19.6172C56.7135 19.0391 56.9297 18.2318 56.9297 17.1953C56.9297 16.2682 56.7083 15.5182 56.2656 14.9453C55.8281 14.3672 55.2448 14.0781 54.5156 14.0781C53.8021 14.0781 53.2266 14.362 52.7891 14.9297C52.3516 15.4974 52.1328 16.3099 52.1328 17.3672ZM59.8047 17.1953C59.8047 16.3672 59.9661 15.6224 60.2891 14.9609C60.6172 14.2995 61.0703 13.7891 61.6484 13.4297C62.2318 13.0703 62.8958 12.8906 63.6406 12.8906C64.7917 12.8906 65.7214 13.2891 66.4297 14.0859C67.1432 14.8828 67.5 15.9427 67.5 17.2656V17.3672C67.5 18.1901 67.3411 18.9297 67.0234 19.5859C66.7109 20.237 66.2604 20.7448 65.6719 21.1094C65.0885 21.474 64.4167 21.6562 63.6562 21.6562C62.5104 21.6562 61.5807 21.2578 60.8672 20.4609C60.1589 19.6641 59.8047 18.6094 59.8047 17.2969V17.1953ZM61.2578 17.3672C61.2578 18.3047 61.474 19.0573 61.9062 19.625C62.3438 20.1927 62.9271 20.4766 63.6562 20.4766C64.3906 20.4766 64.974 20.1901 65.4062 19.6172C65.8385 19.0391 66.0547 18.2318 66.0547 17.1953C66.0547 16.2682 65.8333 15.5182 65.3906 14.9453C64.9531 14.3672 64.3698 14.0781 63.6406 14.0781C62.9271 14.0781 62.3516 14.362 61.9141 14.9297C61.4766 15.4974 61.2578 16.3099 61.2578 17.3672ZM71.2734 11V13.0469H72.8516V14.1641H71.2734V19.4062C71.2734 19.7448 71.3438 20 71.4844 20.1719C71.625 20.3385 71.8646 20.4219 72.2031 20.4219C72.3698 20.4219 72.599 20.3906 72.8906 20.3281V21.5C72.5104 21.6042 72.1406 21.6562 71.7812 21.6562C71.1354 21.6562 70.6484 21.4609 70.3203 21.0703C69.9922 20.6797 69.8281 20.125 69.8281 19.4062V14.1641H68.2891V13.0469H69.8281V11H71.2734ZM74.4688 21.5V10.125H77.9688C78.9688 10.125 79.862 10.3516 80.6484 10.8047C81.4401 11.2526 82.0573 11.8932 82.5 12.7266C82.9427 13.5547 83.1641 14.4974 83.1641 15.5547V16.0781C83.1641 17.1354 82.9453 18.0755 82.5078 18.8984C82.0755 19.7214 81.4635 20.3594 80.6719 20.8125C79.8802 21.2656 78.987 21.4948 77.9922 21.5H74.4688ZM76.8125 12.0234V19.6172H77.9453C78.862 19.6172 79.5625 19.3177 80.0469 18.7188C80.5312 18.1198 80.7786 17.263 80.7891 16.1484V15.5469C80.7891 14.3906 80.5495 13.5156 80.0703 12.9219C79.5911 12.3229 78.8906 12.0234 77.9688 12.0234H76.8125ZM88.6172 21.6562C87.3776 21.6562 86.3672 21.276 85.5859 20.5156C84.8099 19.7552 84.4219 18.7422 84.4219 17.4766V17.2578C84.4219 16.4089 84.5859 15.651 84.9141 14.9844C85.2422 14.3125 85.7057 13.7969 86.3047 13.4375C86.9089 13.0729 87.5964 12.8906 88.3672 12.8906C89.5234 12.8906 90.4323 13.2552 91.0938 13.9844C91.7604 14.7135 92.0938 15.7474 92.0938 17.0859V18.0078H86.7109C86.7839 18.5599 87.0026 19.0026 87.3672 19.3359C87.737 19.6693 88.2031 19.8359 88.7656 19.8359C89.6354 19.8359 90.3151 19.5208 90.8047 18.8906L91.9141 20.1328C91.5755 20.612 91.1172 20.987 90.5391 21.2578C89.9609 21.5234 89.3203 21.6562 88.6172 21.6562ZM88.3594 14.7188C87.9115 14.7188 87.5469 14.8698 87.2656 15.1719C86.9896 15.474 86.8125 15.9062 86.7344 16.4688H89.875V16.2891C89.8646 15.7891 89.7292 15.4036 89.4688 15.1328C89.2083 14.8568 88.8385 14.7188 88.3594 14.7188ZM96.4375 18.7422L98.0078 13.0469H100.367L97.5156 21.5H95.3594L92.5078 13.0469H94.8672L96.4375 18.7422Z" fill="white"/>
</svg>
